<?xml version="1.0" standalone="no"?>
<!DOCTYPE svg PUBLIC "-//W3C//DTD SVG 20010904//EN"
 "http://www.w3.org/TR/2001/REC-SVG-20010904/DTD/svg10.dtd">
<svg version="1.0" xmlns="http://www.w3.org/2000/svg"
 width="1024.000000pt" height="1024.000000pt" viewBox="0 0 1024.000000 1024.000000"
 preserveAspectRatio="xMidYMid meet">
<metadata>
Created by potrace 1.16, written by Peter Selinger 2001-2019
</metadata>
<g transform="translate(0.000000,1024.000000) scale(0.100000,-0.100000)"
fill="#000000" stroke="none">
<path d="M4665 10225 c-547 -50 -1092 -188 -1575 -398 -480 -208 -924 -487
-1330 -836 -147 -127 -448 -433 -571 -581 -611 -737 -997 -1594 -1138 -2530
-69 -458 -69 -1062 0 -1520 31 -208 86 -456 144 -660 203 -710 557 -1361 1054
-1940 119 -139 428 -443 566 -559 225 -188 515 -391 760 -531 156 -90 485
-248 650 -313 493 -194 996 -309 1523 -348 207 -15 736 -7 923 15 299 34 588
91 868 171 715 205 1363 558 1941 1054 140 121 445 430 559 566 690 829 1092
1799 1186 2862 19 219 19 667 0 886 -96 1090 -515 2081 -1234 2917 -121 140
-430 445 -566 559 -828 689 -1801 1093 -2855 1186 -213 18 -703 18 -905 0z
m826 -125 c1362 -105 2595 -741 3473 -1793 657 -787 1047 -1748 1136 -2797 14
-161 14 -619 0 -780 -102 -1212 -608 -2304 -1459 -3150 -849 -844 -1951 -1348
-3150 -1440 -173 -13 -569 -13 -742 0 -1551 120 -2946 940 -3802 2236 -463
701 -740 1513 -807 2358 -13 166 -13 606 0 772 109 1377 770 2630 1846 3500
779 631 1739 1013 2744 1093 154 12 605 13 761 1z"/>
<path d="M5407 9658 c-91 -25 -140 -125 -101 -205 23 -46 62 -73 157 -109 123
-47 158 -106 95 -159 -28 -24 -39 -27 -85 -23 -67 6 -103 31 -123 86 -13 39
-17 42 -52 42 -36 0 -38 -2 -38 -30 0 -92 72 -157 192 -175 143 -21 261 83
228 203 -14 54 -42 76 -166 130 -126 55 -151 81 -124 130 43 76 196 49 215
-39 6 -26 11 -29 47 -29 l41 0 -6 40 c-11 82 -79 135 -188 144 -30 3 -71 0
-92 -6z"/>
<path d="M4518 9637 c-75 -9 -78 -10 -78 -36 0 -14 14 -134 30 -266 16 -132
30 -245 30 -251 0 -6 13 -9 33 -6 236 29 283 45 335 108 42 50 56 109 49 203
-8 123 -58 215 -134 247 -37 16 -147 16 -265 1z m222 -76 c52 -27 82 -94 88
-190 3 -61 1 -85 -13 -111 -32 -62 -60 -76 -177 -90 l-58 -6 -5 30 c-12 74
-44 360 -40 364 5 5 100 19 140 21 17 0 46 -7 65 -18z"/>
<path d="M5897 9568 c-5 -40 -1 -43 81 -59 35 -7 66 -19 69 -26 3 -7 -18 -112
-46 -234 -28 -122 -50 -223 -49 -224 2 -2 21 -6 44 -9 l40 -7 52 227 c29 125
54 229 56 231 3 4 89 -16 147 -33 13 -3 18 4 23 32 4 20 5 38 3 41 -7 6 -377
93 -398 93 -11 0 -18 -11 -22 -32z"/>
<path d="M3989 9532 l-185 -54 74 -262 c40 -143 76 -263 78 -265 3 -3 90 20
195 49 l190 55 -7 30 c-3 16 -10 34 -14 38 -4 5 -69 -10 -145 -32 -76 -23
-143 -41 -150 -41 -9 0 -50 124 -50 154 0 5 59 26 130 46 l130 37 -3 29 c-2
16 -6 32 -10 36 -4 4 -67 -10 -139 -31 l-133 -39 -21 70 c-11 39 -19 71 -17
73 2 2 36 12 76 24 238 69 223 61 199 111 l-12 26 -186 -54z"/>
<path d="M3440 9342 c-107 -42 -197 -77 -198 -78 -2 -2 1 -19 8 -39 13 -40 10
-40 107 0 32 13 61 21 64 19 3 -2 41 -97 84 -211 43 -114 81 -212 85 -217 9
-9 80 13 80 25 0 4 -36 102 -80 218 -44 116 -80 214 -80 219 0 4 34 20 75 35
41 16 75 32 75 36 0 5 -6 22 -13 38 l-12 30 -195 -75z"/>
<path d="M6438 9181 c-104 -121 -188 -221 -188 -224 0 -2 19 -10 41 -17 45
-15 48 -13 116 73 l22 28 98 -38 98 -38 3 -78 3 -78 34 -15 c19 -8 39 -14 45
-14 7 0 10 99 10 294 l0 294 -40 16 c-22 9 -44 16 -48 16 -4 0 -91 -99 -194
-219z m198 -127 c-3 -9 -24 -5 -76 15 -39 16 -71 32 -70 37 0 5 33 49 73 97
l72 89 3 -113 c1 -62 1 -118 -2 -125z"/>
<path d="M6985 9209 c-9 -17 -15 -32 -13 -34 2 -1 36 -19 76 -39 39 -20 72
-39 72 -42 0 -3 -47 -96 -105 -208 -58 -111 -105 -206 -105 -209 0 -4 17 -15
38 -26 l38 -19 107 213 107 214 74 -40 74 -40 20 35 21 35 -185 95 c-101 53
-189 96 -194 96 -5 0 -17 -14 -25 -31z"/>
<path d="M3023 9153 c-18 -9 -33 -20 -33 -25 0 -12 239 -488 246 -488 5 0 65
29 72 35 5 4 -242 495 -248 494 -3 0 -20 -8 -37 -16z"/>
<path d="M2715 8976 l-30 -24 44 -64 c24 -34 77 -112 118 -171 74 -106 74
-108 41 -94 -18 8 -120 51 -226 97 l-192 82 -40 -27 -40 -28 23 -31 c13 -17
83 -118 156 -223 74 -106 139 -193 145 -193 13 1 56 35 56 45 0 4 -50 79 -111
167 -60 88 -108 162 -106 164 2 3 99 -36 215 -86 116 -49 216 -90 222 -90 17
0 70 39 70 52 0 12 -301 448 -309 448 -3 0 -19 -11 -36 -24z"/>
<path d="M7517 8868 c-128 -182 -259 -373 -263 -382 -2 -6 70 -62 158 -125
l162 -113 23 26 c13 15 23 30 23 34 0 4 -54 45 -121 92 -66 46 -123 88 -125
92 -5 8 69 122 86 133 5 3 60 -30 122 -74 l112 -81 18 28 c10 15 18 30 18 34
0 4 -50 42 -110 84 -64 45 -109 83 -106 90 2 7 21 35 41 62 l36 51 119 -85
c65 -46 123 -84 128 -84 9 0 42 43 42 54 0 6 -307 226 -314 226 -3 0 -25 -28
-49 -62z"/>
<path d="M2146 8551 l-29 -30 90 -98 c50 -54 101 -107 113 -118 49 -43 80 -97
80 -138 0 -33 -7 -46 -44 -83 -37 -38 -49 -44 -84 -44 -28 0 -49 7 -69 24 -36
30 -254 252 -265 268 -5 10 -16 4 -39 -19 l-32 -32 70 -78 c107 -118 227 -231
257 -243 43 -16 113 -12 155 9 45 23 108 91 127 137 19 46 17 101 -5 150 -15
33 -266 310 -291 322 -3 1 -19 -11 -34 -27z"/>
<path d="M8009 8474 c-38 -24 -69 -76 -69 -116 0 -46 15 -88 62 -169 44 -76
50 -127 18 -159 -39 -39 -111 -17 -155 47 -27 41 -32 87 -13 128 10 23 9 29
-19 56 l-30 31 -22 -35 c-43 -69 -40 -135 9 -209 57 -86 162 -139 238 -119 45
13 99 65 111 109 12 42 4 70 -58 187 -56 106 -61 135 -31 165 31 31 74 26 120
-16 45 -41 59 -88 40 -135 -11 -27 -10 -32 10 -54 30 -32 36 -31 60 8 26 42
26 109 -1 164 -49 101 -193 164 -270 117z"/>
<path d="M1428 7690 c-69 -21 -108 -73 -108 -146 0 -62 29 -111 80 -136 69
-35 143 -14 194 55 29 39 29 125 0 164 -39 52 -112 80 -166 63z"/>
<path d="M8633 7680 c-55 -28 -83 -74 -83 -134 0 -56 19 -97 60 -126 64 -45
146 -35 199 25 107 123 -32 308 -176 235z"/>
<path d="M847 6869 l-75 -189 35 -15 c20 -9 37 -14 39 -13 1 2 28 67 59 146
31 78 62 142 69 142 9 0 133 -48 145 -57 2 -1 -20 -60 -48 -130 -28 -70 -51
-131 -51 -135 0 -6 61 -30 66 -26 1 2 23 57 50 123 26 66 50 124 54 128 10 12
142 -43 136 -57 -33 -78 -106 -262 -106 -268 0 -7 52 -38 63 -38 11 0 149 362
141 370 -8 7 -287 124 -455 190 l-46 18 -76 -189z"/>
<path d="M9215 6910 l-90 -37 -183 24 c-101 14 -185 23 -188 21 -4 -4 23 -77
32 -87 1 -2 65 -9 140 -17 75 -7 138 -15 139 -16 2 -2 -37 -50 -86 -108 -48
-58 -88 -109 -89 -115 0 -15 32 -95 39 -95 3 1 57 70 120 155 l115 154 90 37
c50 21 95 41 99 44 12 10 -19 80 -35 79 -7 -1 -53 -18 -103 -39z"/>
<path d="M9284 6523 c3 -10 8 -30 12 -45 5 -23 12 -28 38 -28 42 0 91 -32 112
-72 25 -46 23 -116 -4 -159 -42 -69 -189 -121 -276 -98 -121 32 -164 194 -72
267 26 20 26 23 16 61 -6 23 -13 41 -16 41 -18 0 -67 -35 -88 -62 -50 -67 -56
-162 -14 -258 41 -96 115 -144 223 -144 223 0 366 141 326 320 -26 115 -113
194 -213 194 -42 0 -49 -3 -44 -17z"/>
<path d="M705 6464 c-3 -20 -3 -40 2 -44 4 -4 92 -27 195 -50 103 -24 185 -46
183 -50 -3 -4 -100 -40 -217 -80 -117 -40 -218 -78 -225 -84 -7 -6 -15 -29
-18 -51 l-7 -40 268 -62 c147 -35 269 -61 270 -60 1 1 5 20 8 42 l7 41 -188
43 c-103 24 -191 46 -196 50 -4 4 75 35 175 69 283 97 271 91 281 141 5 24 7
44 5 46 -3 3 -519 125 -529 125 -4 0 -10 -16 -14 -36z"/>
<path d="M6767 5908 c-25 -83 -57 -136 -122 -197 -130 -123 -310 -151 -474
-74 -76 36 -161 123 -196 200 l-29 62 -32 -68 c-57 -116 -165 -200 -295 -227
-187 -39 -376 53 -463 226 l-33 68 -29 -61 c-78 -165 -273 -269 -447 -238
-140 24 -259 114 -321 242 -33 70 -34 71 -41 41 -10 -46 -75 -142 -126 -185
-93 -80 -227 -118 -342 -98 -132 23 -254 114 -317 236 -30 59 -31 59 -24 20
37 -236 144 -495 294 -708 83 -118 268 -303 390 -390 113 -80 319 -185 445
-226 481 -158 1014 -87 1435 193 409 273 667 689 745 1204 4 23 5 42 3 42 -1
0 -11 -28 -21 -62z"/>
<path d="M9360 5868 c-135 -14 -257 -27 -273 -27 -26 -1 -27 -2 -21 -43 4 -24
7 -44 8 -45 1 -1 80 7 176 17 96 11 188 20 203 20 24 0 -1 -24 -160 -148
l-188 -149 2 -47 c1 -26 3 -49 5 -51 3 -3 541 54 543 58 1 1 0 20 -2 42 l-5
40 -201 -21 c-111 -12 -203 -20 -205 -19 -2 2 83 71 187 154 202 160 203 161
183 226 -7 20 -8 20 -252 -7z"/>
<path d="M851 5775 c-145 -35 -265 -65 -266 -67 -2 -2 -5 -23 -6 -47 l-4 -44
260 -122 c280 -132 273 -131 274 -60 1 29 -3 32 -152 97 -83 37 -179 79 -212
94 l-60 27 225 47 c212 44 225 48 231 71 13 46 10 69 -8 68 -10 -1 -137 -30
-282 -64z"/>
<path d="M9126 5213 c-3 -38 -6 -126 -8 -198 l-1 -130 154 -6 c85 -4 208 -7
275 -8 l121 -1 6 197 c8 212 7 213 -44 213 l-27 0 -7 -160 -7 -160 -86 0 -85
0 5 145 6 145 -39 0 -39 0 0 -117 c0 -168 2 -163 -82 -163 l-69 0 3 155 3 155
-36 0 -36 0 -7 -67z"/>
<path d="M560 5227 l0 -45 198 -6 c108 -4 232 -9 275 -12 l77 -6 0 45 0 45
-77 6 c-43 3 -167 9 -275 12 l-198 6 0 -45z"/>
<path d="M830 4979 c-129 -9 -236 -18 -237 -18 -2 -1 -3 -21 -3 -46 l0 -46 48
5 c26 3 77 8 113 11 l66 5 7 -31 c8 -43 7 -161 -2 -175 -14 -21 -49 -33 -116
-40 -89 -9 -100 -18 -91 -77 6 -38 10 -45 20 -37 8 6 52 18 99 25 95 15 120
26 136 56 11 20 12 20 31 -5 52 -67 188 -50 235 28 21 34 23 92 10 269 l-8 97
-36 -1 c-21 -1 -143 -10 -272 -20z m244 -121 c15 -133 3 -182 -51 -197 -45
-13 -87 3 -102 37 -7 14 -15 66 -18 114 l-6 87 69 4 c38 1 76 4 85 5 12 2 18
-10 23 -50z"/>
<path d="M9186 4705 c-86 -30 -140 -123 -141 -240 0 -122 59 -203 180 -246 73
-25 195 -26 250 0 82 37 133 113 142 211 5 54 -1 77 -45 163 -2 4 12 7 32 7
33 0 36 2 36 30 0 17 -4 30 -8 30 -5 0 -69 11 -142 25 -74 13 -135 23 -136 22
-5 -7 -39 -228 -35 -232 2 -3 19 -5 36 -5 32 0 32 1 43 66 6 37 13 69 16 71
11 11 67 -21 97 -55 29 -33 31 -39 27 -98 -6 -103 -58 -156 -161 -162 -105 -7
-187 27 -234 97 -53 79 -7 217 77 236 28 6 40 27 40 73 0 26 -17 28 -74 7z"/>
<path d="M924 4426 c-160 -36 -239 -124 -238 -261 1 -182 130 -295 306 -267
171 26 271 121 271 257 1 201 -143 315 -339 271z m178 -102 c82 -42 112 -168
58 -243 -47 -67 -184 -114 -268 -92 -117 32 -169 172 -98 265 59 78 219 114
308 70z"/>
<path d="M8998 4013 l-66 -4 -16 -46 c-9 -26 -14 -49 -11 -52 3 -3 106 -87
228 -187 l222 -181 17 41 c19 46 22 42 -67 112 l-39 31 36 99 35 99 76 3 75 3
16 44 15 45 -227 -2 c-125 -1 -257 -3 -294 -5z m228 -83 l33 0 -26 -75 c-13
-41 -28 -75 -31 -75 -11 0 -187 141 -191 153 -2 7 26 8 89 4 51 -4 108 -7 126
-7z"/>
<path d="M1118 3777 c-136 -56 -249 -105 -252 -108 -4 -3 1 -22 9 -43 15 -36
16 -36 48 -23 225 93 339 138 342 135 2 -2 -59 -91 -136 -198 -76 -106 -139
-195 -139 -197 0 -12 34 -83 39 -83 10 0 491 197 498 203 7 8 -17 77 -27 77
-4 0 -90 -34 -191 -75 -100 -41 -184 -74 -185 -72 -2 1 60 89 137 195 76 106
139 199 139 206 0 13 -28 87 -33 85 -1 0 -113 -46 -249 -102z"/>
<path d="M1343 3208 l-232 -141 15 -28 c7 -15 19 -31 24 -34 6 -4 90 42 188
101 97 59 182 110 187 113 16 8 -13 -26 -157 -186 -76 -83 -138 -156 -138
-161 0 -14 34 -72 42 -72 4 0 102 25 219 55 117 30 217 54 221 53 4 -2 -78
-55 -181 -117 l-189 -115 21 -38 c20 -34 24 -36 42 -24 12 8 97 60 190 116 94
56 191 115 217 132 l46 29 -31 54 c-18 30 -36 55 -40 55 -8 0 -393 -95 -432
-107 -21 -6 -19 -3 178 215 l118 131 -33 56 c-18 30 -35 55 -38 55 -3 -1 -109
-64 -237 -142z"/>
<path d="M8653 3163 l-21 -38 174 -105 174 -105 -93 -6 c-50 -4 -160 -7 -243
-8 l-150 -1 -23 -41 c-13 -22 -21 -42 -20 -43 2 -2 99 -61 214 -131 116 -71
220 -135 232 -143 21 -13 24 -12 43 20 11 18 20 36 20 39 0 3 -77 53 -172 110
l-172 104 65 6 c35 4 144 7 241 8 l177 1 25 42 25 41 -236 144 c-129 79 -236
143 -237 143 -1 0 -12 -17 -23 -37z"/>
<path d="M1737 2594 l-218 -165 28 -38 c15 -21 70 -94 122 -163 l94 -126 29
21 c15 11 28 25 28 29 0 5 -40 62 -90 128 -49 66 -90 121 -90 124 0 6 131 108
134 104 2 -2 38 -50 81 -108 43 -58 81 -108 84 -112 3 -3 19 4 35 16 l28 23
-85 115 -85 115 49 37 c27 20 55 39 62 42 7 2 47 -41 92 -103 44 -58 85 -113
90 -120 8 -11 16 -9 41 9 l32 23 -115 155 c-63 85 -117 156 -122 158 -4 1
-105 -72 -224 -164z"/>
<path d="M8321 2639 c-117 -35 -215 -180 -197 -291 22 -138 184 -278 319 -278
57 0 134 38 180 90 113 124 102 266 -28 389 -86 81 -190 115 -274 90z m134
-103 c63 -29 139 -110 156 -165 15 -50 2 -105 -37 -151 -73 -86 -178 -80 -285
17 -107 97 -104 232 7 299 49 30 96 30 159 0z"/>
<path d="M2081 2173 l-185 -206 34 -28 34 -29 25 30 c89 104 246 278 249 275
2 -1 -15 -110 -38 -241 l-41 -237 34 -35 34 -34 163 184 c90 100 174 194 186
208 l23 25 -34 28 -34 27 -133 -150 c-90 -102 -134 -145 -136 -133 -1 10 16
117 37 238 l40 220 -32 33 c-17 17 -33 32 -36 32 -4 0 -89 -93 -190 -207z"/>
<path d="M7912 2229 l-33 -30 167 -187 c92 -103 176 -196 186 -207 18 -19 18
-19 50 12 l31 32 -33 38 c-59 67 -333 373 -334 373 0 0 -16 -14 -34 -31z"/>
<path d="M7620 1974 c-91 -69 -166 -128 -167 -132 -1 -4 8 -19 20 -34 l22 -27
68 51 c39 29 72 47 76 42 5 -5 69 -91 143 -190 l134 -182 36 27 36 27 -139
187 c-77 103 -139 190 -139 195 0 4 29 30 65 56 l65 47 -22 30 c-12 16 -24 29
-28 29 -3 0 -80 -56 -170 -126z"/>
<path d="M2652 1978 l-20 -32 68 -51 68 -51 -139 -193 -139 -194 32 -23 c18
-13 35 -24 38 -24 3 0 66 83 139 185 73 102 136 187 140 189 3 2 36 -18 73
-45 l67 -49 20 29 c12 16 21 31 21 34 0 5 -306 232 -337 250 -6 4 -19 -6 -31
-25z"/>
<path d="M7194 1716 c-61 -28 -121 -85 -141 -135 -60 -142 58 -372 214 -417
145 -42 313 83 313 233 0 25 -16 89 -25 101 -2 2 -18 -6 -36 -17 -33 -20 -34
-23 -31 -78 4 -73 -19 -112 -80 -142 -55 -26 -88 -27 -137 -1 -62 31 -128 125
-145 207 -15 68 25 138 101 177 43 22 78 20 123 -5 l38 -22 32 23 31 22 -23
25 c-55 59 -145 70 -234 29z"/>
<path d="M3003 1435 c-155 -128 -219 -186 -210 -192 61 -45 60 -45 122 7 32
27 61 48 64 46 61 -31 181 -110 181 -119 0 -7 -7 -41 -15 -76 -9 -35 -14 -65
-13 -66 52 -34 79 -45 82 -33 6 17 106 551 106 564 0 9 -73 55 -87 53 -4 0
-108 -83 -230 -184z m227 68 c-1 -18 -48 -224 -53 -229 -5 -5 -124 63 -132 76
-5 8 163 159 178 160 4 0 7 -3 7 -7z"/>
<path d="M6686 1454 c-98 -41 -180 -75 -182 -76 -2 -3 167 -431 195 -495 10
-22 12 -21 192 53 101 41 184 76 186 78 2 2 -2 20 -11 39 l-14 35 -143 -58
c-78 -33 -145 -57 -149 -55 -14 9 -62 147 -54 155 5 4 62 30 127 56 121 49
132 59 103 99 -13 18 -18 17 -127 -28 -63 -25 -121 -49 -130 -52 -11 -4 -18 0
-21 12 -3 10 -15 41 -26 69 l-21 52 140 57 c76 32 139 63 139 69 -1 6 -6 23
-13 37 l-12 27 -179 -74z"/>
<path d="M3467 1203 c-54 -137 -97 -252 -96 -258 2 -9 329 -149 329 -141 0 2
7 19 15 39 l14 35 -117 47 c-64 26 -121 50 -126 55 -5 5 29 102 78 225 48 120
86 218 84 219 -15 9 -62 26 -71 26 -7 0 -56 -109 -110 -247z"/>
<path d="M6185 1275 c-200 -62 -200 -62 -198 -90 3 -45 15 -48 97 -24 42 12
78 20 80 18 1 -2 33 -102 69 -222 36 -120 68 -221 70 -224 3 -2 23 1 44 7 l40
12 -69 226 c-37 124 -65 229 -61 233 5 4 41 17 81 28 39 12 72 25 71 29 0 4
-6 21 -12 38 l-12 30 -200 -61z"/>
<path d="M4306 919 c-20 -149 -36 -272 -34 -274 2 -1 21 -6 44 -9 l40 -7 15
108 c13 98 16 108 34 105 11 -1 65 -5 121 -8 l100 -7 36 32 c48 42 61 78 56
156 -3 55 -8 69 -33 95 -15 16 -42 34 -59 39 -31 10 -232 41 -264 41 -16 0
-22 -33 -56 -271z m282 155 c42 -17 57 -56 42 -106 -15 -53 -38 -62 -139 -54
-46 3 -87 8 -89 11 -2 2 1 43 8 90 l12 87 67 -7 c36 -4 81 -13 99 -21z"/>
<path d="M5575 1156 c-102 -47 -153 -148 -141 -275 8 -86 33 -153 75 -203 47
-55 100 -78 182 -78 119 0 199 43 243 132 22 43 26 66 26 133 0 143 -48 244
-139 292 -62 33 -175 32 -246 -1z m167 -56 c145 -41 178 -334 45 -403 -91 -47
-187 -15 -231 76 -67 138 -31 283 79 322 49 17 60 18 107 5z"/>
<path d="M4860 851 l0 -281 45 0 45 0 0 115 0 115 95 0 c122 0 130 -7 140
-117 10 -115 8 -113 67 -113 44 0 49 2 43 18 -5 9 -13 62 -20 116 -10 88 -14
101 -38 122 -26 23 -27 23 -7 34 52 28 71 131 37 196 -32 62 -54 69 -239 72
l-168 4 0 -281z m258 200 c57 -11 74 -30 76 -81 1 -34 -4 -46 -27 -66 -25 -22
-37 -24 -123 -24 l-94 0 0 83 c0 46 3 87 7 90 9 10 109 8 161 -2z"/>
</g>
</svg>
