<?xml version="1.0" encoding="UTF-8"?>
<!DOCTYPE svg PUBLIC "-//W3C//DTD SVG 1.1//EN" "http://www.w3.org/Graphics/SVG/1.1/DTD/svg11.dtd">
<svg xmlns="http://www.w3.org/2000/svg" version="1.1" width="255px" height="252px" style="shape-rendering:geometricPrecision; text-rendering:geometricPrecision; image-rendering:optimizeQuality; fill-rule:evenodd; clip-rule:evenodd" xmlns:xlink="http://www.w3.org/1999/xlink">
<g><path style="opacity:1" fill="#312e2e" d="M 119.5,-0.5 C 124.5,-0.5 129.5,-0.5 134.5,-0.5C 185.067,4.56667 221.567,29.9 244,75.5C 249.577,89.4715 253.077,103.805 254.5,118.5C 254.5,123.167 254.5,127.833 254.5,132.5C 248.169,189.008 218.169,226.841 164.5,246C 155.49,248.497 146.49,250.33 137.5,251.5C 130.5,251.5 123.5,251.5 116.5,251.5C 68.5367,245.606 33.37,221.273 11,178.5C 5.1063,164.583 1.27296,150.25 -0.5,135.5C -0.5,128.833 -0.5,122.167 -0.5,115.5C 7.22797,58.5998 38.5613,21.4331 93.5,4C 102.217,1.93687 110.884,0.436866 119.5,-0.5 Z"/></g>
<g><path style="opacity:1" fill="#939406" d="M 120.5,18.5 C 116.833,18.8333 114.833,20.8333 114.5,24.5C 113.031,21.8976 113.698,19.731 116.5,18C 118.066,17.235 119.399,17.4017 120.5,18.5 Z"/></g>
<g><path style="opacity:1" fill="#e9ec00" d="M 120.5,18.5 C 121.219,20.7638 121.552,23.0971 121.5,25.5C 119.097,25.552 116.764,25.2186 114.5,24.5C 114.833,20.8333 116.833,18.8333 120.5,18.5 Z"/></g>
<g><path style="opacity:1" fill="#9f9f05" d="M 120.5,18.5 C 124.024,20.4524 124.358,22.7857 121.5,25.5C 121.552,23.0971 121.219,20.7638 120.5,18.5 Z"/></g>
<g><path style="opacity:1" fill="#a3a302" d="M 114.5,24.5 C 116.764,25.2186 119.097,25.552 121.5,25.5C 118.852,28.2624 116.519,27.9291 114.5,24.5 Z"/></g>
<g><path style="opacity:1" fill="#eaed00" d="M 191.5,39.5 C 191.739,41.4672 191.406,43.3005 190.5,45C 187.518,45.498 184.518,45.6646 181.5,45.5C 181.5,48.5 181.5,51.5 181.5,54.5C 181.5,59.1667 181.5,63.8333 181.5,68.5C 181.421,69.9305 181.754,71.2638 182.5,72.5C 184.695,73.7691 186.861,73.7691 189,72.5C 189.748,74.8401 189.248,76.8401 187.5,78.5C 185.304,78.59 183.137,78.9233 181,79.5C 179.289,79.5607 177.956,78.8941 177,77.5C 175.575,70.6154 175.075,63.6154 175.5,56.5C 175.552,52.8019 175.886,49.1352 176.5,45.5C 173.167,45.5 169.833,45.5 166.5,45.5C 166.5,48.8333 166.5,52.1667 166.5,55.5C 166.5,58.1667 166.5,60.8333 166.5,63.5C 165.215,66.5885 164.549,69.9219 164.5,73.5C 164.167,74.8333 163.833,76.1667 163.5,77.5C 161.5,77.5 160.5,78.5 160.5,80.5C 159.5,80.5 158.5,80.5 157.5,80.5C 155.016,78.4548 154.016,75.7882 154.5,72.5C 155.906,72.0269 156.573,71.0269 156.5,69.5C 156.5,69.1667 156.5,68.8333 156.5,68.5C 160.054,66.2017 161.721,62.8684 161.5,58.5C 161.448,56.0971 161.781,53.7638 162.5,51.5C 163.461,49.7354 163.795,47.7354 163.5,45.5C 161.143,45.3367 158.81,45.5034 156.5,46C 155.944,46.3826 155.611,46.8826 155.5,47.5C 154.503,47.5299 153.836,47.0299 153.5,46C 154.414,44.5936 155.08,43.0936 155.5,41.5C 156.347,40.0337 157.68,39.2004 159.5,39C 170.341,38.1745 181.008,38.3412 191.5,39.5 Z"/></g>
<g><path style="opacity:1" fill="#f0f300" d="M 122.5,74.5 C 122.5,74.8333 122.5,75.1667 122.5,75.5C 122.756,77.7761 124.09,78.9428 126.5,79C 121.167,79.6667 115.833,79.6667 110.5,79C 113.215,78.1253 114.548,76.2919 114.5,73.5C 114.5,64.5 114.5,55.5 114.5,46.5C 113.77,45.2876 112.77,44.2876 111.5,43.5C 114.677,41.5709 118.011,40.2376 121.5,39.5C 121.172,51.3453 121.505,63.012 122.5,74.5 Z"/></g>
<g><path style="opacity:1" fill="#9d9e02" d="M 122.5,74.5 C 121.505,63.012 121.172,51.3453 121.5,39.5C 118.011,40.2376 114.677,41.5709 111.5,43.5C 112.77,44.2876 113.77,45.2876 114.5,46.5C 112.565,45.8505 110.565,45.5172 108.5,45.5C 108.281,44.325 108.614,43.325 109.5,42.5C 113.557,40.0735 117.89,38.7401 122.5,38.5C 122.5,50.5 122.5,62.5 122.5,74.5 Z"/></g>
<g><path style="opacity:1" fill="#8b8a04" d="M 162.5,51.5 C 162.47,46.5494 160.137,45.2161 155.5,47.5C 155.611,46.8826 155.944,46.3826 156.5,46C 158.81,45.5034 161.143,45.3367 163.5,45.5C 163.795,47.7354 163.461,49.7354 162.5,51.5 Z"/></g>
<g><path style="opacity:1" fill="#75750b" d="M 191.5,39.5 C 192.622,41.2884 192.789,43.2884 192,45.5C 189.595,46.2744 187.095,46.7744 184.5,47C 183.033,49.3785 182.033,51.8785 181.5,54.5C 181.5,51.5 181.5,48.5 181.5,45.5C 184.518,45.6646 187.518,45.498 190.5,45C 191.406,43.3005 191.739,41.4672 191.5,39.5 Z"/></g>
<g><path style="opacity:1" fill="#aaac03" d="M 155.5,41.5 C 155.08,43.0936 154.414,44.5936 153.5,46C 153.836,47.0299 154.503,47.5299 155.5,47.5C 154.833,48.5 154.167,49.5 153.5,50.5C 151.824,49.8166 151.157,48.4832 151.5,46.5C 152.08,44.2512 153.413,42.5846 155.5,41.5 Z"/></g>
<g><path style="opacity:1" fill="#5b5a05" d="M 146.5,64.5 C 147.968,58.5782 145.968,54.5782 140.5,52.5C 137.099,50.904 134.099,51.5707 131.5,54.5C 131.511,52.9826 132.177,51.8159 133.5,51C 139.157,49.2817 143.657,50.7817 147,55.5C 147.805,58.6965 147.638,61.6965 146.5,64.5 Z"/></g>
<g><path style="opacity:1" fill="#666514" d="M 151.5,46.5 C 151.157,48.4832 151.824,49.8166 153.5,50.5C 152.713,52.1042 151.38,52.7709 149.5,52.5C 149.595,50.2143 150.262,48.2143 151.5,46.5 Z"/></g>
<g><path style="opacity:1" fill="#8e8f07" d="M 175.5,56.5 C 175.167,56.5 174.833,56.5 174.5,56.5C 174.5,53.1667 174.5,49.8333 174.5,46.5C 172.208,46.2436 170.041,46.5769 168,47.5C 167.817,50.3647 167.317,53.0314 166.5,55.5C 166.5,52.1667 166.5,48.8333 166.5,45.5C 169.833,45.5 173.167,45.5 176.5,45.5C 175.886,49.1352 175.552,52.8019 175.5,56.5 Z"/></g>
<g><path style="opacity:1" fill="#a7a700" d="M 140.5,52.5 C 132.544,53.3929 129.878,57.7262 132.5,65.5C 131.833,65.5 131.167,65.5 130.5,65.5C 128.881,61.5325 129.215,57.8658 131.5,54.5C 134.099,51.5707 137.099,50.904 140.5,52.5 Z"/></g>
<g><path style="opacity:1" fill="#837e0f" d="M 161.5,58.5 C 161.721,62.8684 160.054,66.2017 156.5,68.5C 158.186,65.1279 159.853,61.7946 161.5,58.5 Z"/></g>
<g><path style="opacity:1" fill="#eeef00" d="M 140.5,52.5 C 147.714,58.4168 147.047,63.0835 138.5,66.5C 136.547,65.8444 134.547,65.5111 132.5,65.5C 129.878,57.7262 132.544,53.3929 140.5,52.5 Z"/></g>
<g><path style="opacity:1" fill="#b1b200" d="M 140.5,52.5 C 145.968,54.5782 147.968,58.5782 146.5,64.5C 143.89,66.637 140.89,67.9703 137.5,68.5C 135.058,68.7142 133.392,67.7142 132.5,65.5C 134.547,65.5111 136.547,65.8444 138.5,66.5C 147.047,63.0835 147.714,58.4168 140.5,52.5 Z"/></g>
<g><path style="opacity:1" fill="#656504" d="M 146.5,64.5 C 146.586,65.4959 146.252,66.3292 145.5,67C 141.782,69.2984 137.782,69.9651 133.5,69C 132.29,67.9609 131.29,66.7942 130.5,65.5C 131.167,65.5 131.833,65.5 132.5,65.5C 133.392,67.7142 135.058,68.7142 137.5,68.5C 140.89,67.9703 143.89,66.637 146.5,64.5 Z"/></g>
<g><path style="opacity:1" fill="#4f4e14" d="M 166.5,63.5 C 166.664,66.1873 166.497,68.854 166,71.5C 165.722,72.4158 165.222,73.0825 164.5,73.5C 164.549,69.9219 165.215,66.5885 166.5,63.5 Z"/></g>
<g><path style="opacity:1" fill="#61650f" d="M 156.5,69.5 C 156.573,71.0269 155.906,72.0269 154.5,72.5C 154.427,70.9731 155.094,69.9731 156.5,69.5 Z"/></g>
<g><path style="opacity:1" fill="#86860f" d="M 187.5,79.5 C 187.5,79.1667 187.5,78.8333 187.5,78.5C 189.248,76.8401 189.748,74.8401 189,72.5C 186.861,73.7691 184.695,73.7691 182.5,72.5C 181.754,71.2638 181.421,69.9305 181.5,68.5C 182.223,70.2133 183.557,71.2133 185.5,71.5C 187.847,70.0575 190.18,68.7242 192.5,67.5C 192.364,72.2674 190.697,76.2674 187.5,79.5 Z"/></g>
<g><path style="opacity:1" fill="#909102" d="M 154.5,72.5 C 154.016,75.7882 155.016,78.4548 157.5,80.5C 155.983,80.4894 154.816,79.8228 154,78.5C 153.211,76.2884 153.378,74.2884 154.5,72.5 Z"/></g>
<g><path style="opacity:1" fill="#959501" d="M 163.5,77.5 C 162.833,78.8333 161.833,79.8333 160.5,80.5C 160.5,78.5 161.5,77.5 163.5,77.5 Z"/></g>
<g><path style="opacity:1" fill="#8f9006" d="M 114.5,73.5 C 114.548,76.2919 113.215,78.1253 110.5,79C 115.833,79.6667 121.167,79.6667 126.5,79C 124.09,78.9428 122.756,77.7761 122.5,75.5C 124.142,77.0808 126.142,77.7475 128.5,77.5C 128.5,78.5 128.5,79.5 128.5,80.5C 121.833,80.5 115.167,80.5 108.5,80.5C 108.5,79.5 108.5,78.5 108.5,77.5C 111.318,77.3426 113.318,76.0092 114.5,73.5 Z"/></g>
<g><path style="opacity:1" fill="#adae02" d="M 174.5,56.5 C 174.833,56.5 175.167,56.5 175.5,56.5C 175.075,63.6154 175.575,70.6154 177,77.5C 177.956,78.8941 179.289,79.5607 181,79.5C 183.137,78.9233 185.304,78.59 187.5,78.5C 187.5,78.8333 187.5,79.1667 187.5,79.5C 181.708,81.9025 177.208,80.5691 174,75.5C 173.556,69.1549 173.723,62.8216 174.5,56.5 Z"/></g>
<g><path style="opacity:1" fill="#f9fa00" d="M 84.5,87.5 C 92.5069,87.3336 100.507,87.5003 108.5,88C 111.676,88.8886 114.676,90.0553 117.5,91.5C 119.23,92.0256 120.564,93.0256 121.5,94.5C 123.406,98.9222 125.572,103.256 128,107.5C 129.274,114.103 129.774,120.77 129.5,127.5C 129.495,131.534 129.162,135.534 128.5,139.5C 104.476,138.843 80.8098,139.51 57.5,141.5C 56.8505,143.435 56.5172,145.435 56.5,147.5C 56.5,153.167 56.5,158.833 56.5,164.5C 56.4021,166.553 57.0687,168.22 58.5,169.5C 58.6225,172.292 59.9558,174.292 62.5,175.5C 62.8333,176.5 63.5,177.167 64.5,177.5C 66.3854,179.311 68.7187,180.478 71.5,181C 75.8206,181.499 80.1539,181.666 84.5,181.5C 88.7941,182.193 92.4608,181.193 95.5,178.5C 95.8417,177.662 96.5084,177.328 97.5,177.5C 100.856,176.389 103.856,174.723 106.5,172.5C 106.842,171.662 107.508,171.328 108.5,171.5C 114.5,170.167 116.833,172.5 115.5,178.5C 113.251,179.08 111.585,180.413 110.5,182.5C 110.167,182.5 109.833,182.5 109.5,182.5C 108.07,182.421 106.736,182.754 105.5,183.5C 103.429,185.185 101.429,186.852 99.5,188.5C 98.8333,189.167 98.1667,189.833 97.5,190.5C 92.0232,192.619 86.3565,193.952 80.5,194.5C 74.4908,194.666 68.4908,194.499 62.5,194C 56.2509,190.902 49.9175,188.068 43.5,185.5C 41.5,183.5 39.5,181.5 37.5,179.5C 36.2387,175.626 35.572,171.626 35.5,167.5C 35.4484,158.482 35.7817,149.482 36.5,140.5C 36.5,140.167 36.5,139.833 36.5,139.5C 38.411,135.767 39.7444,131.767 40.5,127.5C 43.8924,122.428 46.8924,117.094 49.5,111.5C 52.5725,109.431 54.9059,106.764 56.5,103.5C 58.2193,100.781 60.5526,98.7805 63.5,97.5C 65.7488,96.9202 67.4154,95.5869 68.5,93.5C 74.1198,92.0132 79.4532,90.0132 84.5,87.5 Z"/></g>
<g><path style="opacity:1" fill="#747506" d="M 84.5,87.5 C 92.6563,86.3434 100.99,86.1768 109.5,87C 112.855,87.4877 115.522,88.9877 117.5,91.5C 114.676,90.0553 111.676,88.8886 108.5,88C 100.507,87.5003 92.5069,87.3336 84.5,87.5 Z"/></g>
<g><path style="opacity:1" fill="#65650a" d="M 84.5,87.5 C 79.4532,90.0132 74.1198,92.0132 68.5,93.5C 73.1203,89.8669 78.4536,87.8669 84.5,87.5 Z"/></g>
<g><path style="opacity:1" fill="#919108" d="M 68.5,93.5 C 67.4154,95.5869 65.7488,96.9202 63.5,97.5C 64.5846,95.4131 66.2512,94.0798 68.5,93.5 Z"/></g>
<g><path style="opacity:1" fill="#656405" d="M 109.5,127.5 C 109.167,127.5 108.833,127.5 108.5,127.5C 108.666,120.825 108.5,114.158 108,107.5C 103.413,98.0656 95.9126,94.7323 85.5,97.5C 85.9175,96.7784 86.5842,96.2784 87.5,96C 99.4748,93.5085 106.975,98.0085 110,109.5C 110.746,115.551 110.579,121.551 109.5,127.5 Z"/></g>
<g><path style="opacity:1" fill="#322f2e" d="M 85.5,97.5 C 95.9126,94.7323 103.413,98.0656 108,107.5C 108.5,114.158 108.666,120.825 108.5,127.5C 107.527,127.987 106.527,128.487 105.5,129C 91.8212,129.833 78.1545,129.666 64.5,128.5C 63.6906,126.929 63.3573,125.262 63.5,123.5C 66.3411,119.151 68.6745,114.484 70.5,109.5C 73.8333,106.833 76.8333,103.833 79.5,100.5C 81.9674,100.245 83.9674,99.2451 85.5,97.5 Z"/></g>
<g><path style="opacity:1" fill="#6d6d02" d="M 85.5,97.5 C 83.9674,99.2451 81.9674,100.245 79.5,100.5C 81.0326,98.7549 83.0326,97.7549 85.5,97.5 Z"/></g>
<g><path style="opacity:1" fill="#cacb00" d="M 121.5,94.5 C 124.243,96.2393 126.243,98.5726 127.5,101.5C 127.935,104.157 128.935,106.491 130.5,108.5C 130.5,108.833 130.5,109.167 130.5,109.5C 130.823,115.69 130.49,121.69 129.5,127.5C 129.774,120.77 129.274,114.103 128,107.5C 125.572,103.256 123.406,98.9222 121.5,94.5 Z"/></g>
<g><path style="opacity:1" fill="#666708" d="M 79.5,100.5 C 76.8333,103.833 73.8333,106.833 70.5,109.5C 72.4722,105.528 75.4722,102.528 79.5,100.5 Z"/></g>
<g><path style="opacity:1" fill="#b0b000" d="M 56.5,103.5 C 54.9059,106.764 52.5725,109.431 49.5,111.5C 51.0941,108.236 53.4275,105.569 56.5,103.5 Z"/></g>
<g><path style="opacity:1" fill="#4a4a09" d="M 127.5,101.5 C 129.834,103.176 130.834,105.509 130.5,108.5C 128.935,106.491 127.935,104.157 127.5,101.5 Z"/></g>
<g><path style="opacity:1" fill="#656502" d="M 130.5,109.5 C 131.663,119.023 131.496,128.69 130,138.5C 129.617,139.056 129.117,139.389 128.5,139.5C 129.162,135.534 129.495,131.534 129.5,127.5C 130.49,121.69 130.823,115.69 130.5,109.5 Z"/></g>
<g><path style="opacity:1" fill="#73710d" d="M 70.5,109.5 C 68.6745,114.484 66.3411,119.151 63.5,123.5C 64.0908,117.924 66.4241,113.257 70.5,109.5 Z"/></g>
<g><path style="opacity:1" fill="#666716" d="M 49.5,111.5 C 46.8924,117.094 43.8924,122.428 40.5,127.5C 40.523,125.073 41.023,122.74 42,120.5C 44.0421,117.06 46.5421,114.06 49.5,111.5 Z"/></g>
<g><path style="opacity:1" fill="#6f6f05" d="M 63.5,123.5 C 63.3573,125.262 63.6906,126.929 64.5,128.5C 78.1545,129.666 91.8212,129.833 105.5,129C 106.527,128.487 107.527,127.987 108.5,127.5C 108.833,127.5 109.167,127.5 109.5,127.5C 109.5,128.5 109.5,129.5 109.5,130.5C 93.1667,130.5 76.8333,130.5 60.5,130.5C 60.1824,127.519 61.1824,125.185 63.5,123.5 Z"/></g>
<g><path style="opacity:1" fill="#757502" d="M 40.5,127.5 C 39.7444,131.767 38.411,135.767 36.5,139.5C 36.8606,135.085 38.1939,131.085 40.5,127.5 Z"/></g>
<g><path style="opacity:1" fill="#929200" d="M 128.5,139.5 C 106.006,140.497 83.3395,140.831 60.5,140.5C 59.391,140.557 58.391,140.89 57.5,141.5C 80.8098,139.51 104.476,138.843 128.5,139.5 Z"/></g>
<g><path style="opacity:1" fill="#555505" d="M 60.5,140.5 C 59.312,142.988 57.9787,145.322 56.5,147.5C 56.5172,145.435 56.8505,143.435 57.5,141.5C 58.391,140.89 59.391,140.557 60.5,140.5 Z"/></g>
<g><path style="opacity:1" fill="#a6a701" d="M 36.5,140.5 C 35.7817,149.482 35.4484,158.482 35.5,167.5C 35.1667,167.5 34.8333,167.5 34.5,167.5C 34.3337,160.159 34.5003,152.826 35,145.5C 35.1981,143.618 35.6981,141.952 36.5,140.5 Z"/></g>
<g><path style="opacity:1" fill="#5e5204" d="M 56.5,164.5 C 57.9313,165.78 58.5979,167.447 58.5,169.5C 57.0687,168.22 56.4021,166.553 56.5,164.5 Z"/></g>
<g><path style="opacity:1" fill="#858505" d="M 116.5,171.5 C 114.858,169.919 112.858,169.253 110.5,169.5C 113.4,166.687 115.4,167.353 116.5,171.5 Z"/></g>
<g><path style="opacity:1" fill="#c0bf01" d="M 110.5,169.5 C 112.858,169.253 114.858,169.919 116.5,171.5C 120.398,174.127 120.064,176.46 115.5,178.5C 116.833,172.5 114.5,170.167 108.5,171.5C 108.833,170.5 109.5,169.833 110.5,169.5 Z"/></g>
<g><path style="opacity:1" fill="#45421c" d="M 34.5,167.5 C 34.8333,167.5 35.1667,167.5 35.5,167.5C 35.572,171.626 36.2387,175.626 37.5,179.5C 34.7682,176.114 33.7682,172.114 34.5,167.5 Z"/></g>
<g><path style="opacity:1" fill="#5a580f" d="M 58.5,169.5 C 60.2181,171.223 61.5514,173.223 62.5,175.5C 59.9558,174.292 58.6225,172.292 58.5,169.5 Z"/></g>
<g><path style="opacity:1" fill="#54561b" d="M 106.5,172.5 C 103.856,174.723 100.856,176.389 97.5,177.5C 97.3691,176.624 97.7025,175.957 98.5,175.5C 101.207,174.422 103.874,173.422 106.5,172.5 Z"/></g>
<g><path style="opacity:1" fill="#525110" d="M 64.5,177.5 C 67.4067,177.575 70.0734,178.409 72.5,180C 76.4862,180.499 80.4862,180.666 84.5,180.5C 84.5,180.833 84.5,181.167 84.5,181.5C 80.1539,181.666 75.8206,181.499 71.5,181C 68.7187,180.478 66.3854,179.311 64.5,177.5 Z"/></g>
<g><path style="opacity:1" fill="#a5a602" d="M 95.5,178.5 C 92.4608,181.193 88.7941,182.193 84.5,181.5C 84.5,181.167 84.5,180.833 84.5,180.5C 88.1667,179.833 91.8333,179.167 95.5,178.5 Z"/></g>
<g><path style="opacity:1" fill="#5e5c0e" d="M 115.5,178.5 C 114.415,180.587 112.749,181.92 110.5,182.5C 111.585,180.413 113.251,179.08 115.5,178.5 Z"/></g>
<g><path style="opacity:1" fill="#bcbd00" d="M 109.5,182.5 C 106.839,185.502 103.505,187.502 99.5,188.5C 101.429,186.852 103.429,185.185 105.5,183.5C 106.736,182.754 108.07,182.421 109.5,182.5 Z"/></g>
<g><path style="opacity:1" fill="#dadb00" d="M 43.5,185.5 C 49.9175,188.068 56.2509,190.902 62.5,194C 68.4908,194.499 74.4908,194.666 80.5,194.5C 80.5,194.833 80.5,195.167 80.5,195.5C 74.1667,195.5 67.8333,195.5 61.5,195.5C 56.7938,193.705 52.1272,191.705 47.5,189.5C 45.8333,188.5 44.5,187.167 43.5,185.5 Z"/></g>
<g><path style="opacity:1" fill="#5c5c0a" d="M 47.5,189.5 C 52.1272,191.705 56.7938,193.705 61.5,195.5C 55.8291,195.597 51.1624,193.597 47.5,189.5 Z"/></g>
<g><path style="opacity:1" fill="#5d5c0a" d="M 97.5,190.5 C 92.5339,194.039 86.8672,195.706 80.5,195.5C 80.5,195.167 80.5,194.833 80.5,194.5C 86.3565,193.952 92.0232,192.619 97.5,190.5 Z"/></g>
</svg>
