<?xml version="1.0" encoding="UTF-8"?>
<svg version="1.1" xmlns="http://www.w3.org/2000/svg" width="191" height="199">
<path d="M0 0 C21.34180279 17.23417548 35.61349538 40.218751 39.5625 67.6875 C40.46243299 83.31406051 40.5577093 98.75068522 35.5625 113.6875 C35.17707031 114.85023438 34.79164063 116.01296875 34.39453125 117.2109375 C25.01103856 143.26607255 6.86052629 162.51366027 -17.75 174.5 C-38.52946363 183.93086482 -64.90161678 185.75397961 -86.4375 177.6875 C-112.64913433 167.3743699 -132.79836902 149.12774488 -144.125 123.16015625 C-152.80379944 100.19749939 -155.32348727 74.26840005 -147.4375 50.6875 C-147.05207031 49.52476563 -146.66664063 48.36203125 -146.26953125 47.1640625 C-136.88603856 21.10892745 -118.73552629 1.86133973 -94.125 -10.125 C-63.50441367 -24.0223082 -27.1188749 -19.47177702 0 0 Z " fill="#FDCA01" transform="translate(151.4375,17.3125)"/>
<path d="M0 0 C21.34180279 17.23417548 35.61349538 40.218751 39.5625 67.6875 C40.46243299 83.31406051 40.5577093 98.75068522 35.5625 113.6875 C35.17707031 114.85023438 34.79164063 116.01296875 34.39453125 117.2109375 C25.01103856 143.26607255 6.86052629 162.51366027 -17.75 174.5 C-38.52946363 183.93086482 -64.90161678 185.75397961 -86.4375 177.6875 C-112.64913433 167.3743699 -132.79836902 149.12774488 -144.125 123.16015625 C-152.80379944 100.19749939 -155.32348727 74.26840005 -147.4375 50.6875 C-147.05207031 49.52476563 -146.66664063 48.36203125 -146.26953125 47.1640625 C-136.88603856 21.10892745 -118.73552629 1.86133973 -94.125 -10.125 C-63.50441367 -24.0223082 -27.1188749 -19.47177702 0 0 Z M-91.4375 6.6875 C-92.36175781 7.12964844 -93.28601563 7.57179688 -94.23828125 8.02734375 C-114.89175006 18.57317436 -129.05406922 36.98468832 -136.4375 58.6875 C-143.1985295 80.71537031 -139.80814245 103.4735359 -129.4375 123.6875 C-118.53327342 144.02807651 -100.1255678 158.09341173 -78.30859375 165.07421875 C-56.00728317 171.46950601 -33.18025504 167.80710867 -13.03125 156.79296875 C7.78626262 144.85708029 20.87382359 126.62631617 27.4375 103.6875 C33.11461416 81.96788947 29.36177033 60.18519644 18.72607422 40.66699219 C15.53995936 35.24671958 11.66771647 30.43160778 7.5625 25.6875 C6.99015625 25.01460937 6.4178125 24.34171875 5.828125 23.6484375 C-7.26291864 9.45567237 -28.42198847 -0.30236525 -47.53076172 -1.43676758 C-63.18484306 -1.99301271 -77.15755224 -0.22596436 -91.4375 6.6875 Z " fill="#2C3649" transform="translate(151.4375,17.3125)"/>
<path d="M0 0 C0.77283829 -0.00511093 1.54567657 -0.01022186 2.3419342 -0.01548767 C4.89348115 -0.02937351 7.44475768 -0.0284277 9.99633789 -0.02612305 C11.77226359 -0.03001049 13.54818837 -0.03434527 15.32411194 -0.03910828 C19.04553238 -0.04656828 22.76685794 -0.04628077 26.48828125 -0.04101562 C31.254329 -0.03522085 36.01998814 -0.05215315 40.78597164 -0.0753603 C44.45343797 -0.09010067 48.12081077 -0.09096893 51.78830147 -0.08785057 C53.5453525 -0.08836362 55.30240879 -0.09359824 57.05943108 -0.10366249 C59.51774132 -0.11601577 61.97529538 -0.10924227 64.43359375 -0.09765625 C65.51929153 -0.10912186 65.51929153 -0.10912186 66.62692261 -0.12081909 C71.01604495 -0.07515677 73.78511979 0.5890388 77.28149414 3.2746582 C79.77421977 7.12705236 79.43794007 10.79921842 78.83227539 15.18481445 C78.06041948 18.11348759 76.7011842 19.51488362 74.28149414 21.2746582 C71.72426185 22.55327435 69.91412312 22.3880243 67.05493164 22.37231445 C66.02368164 22.3690918 64.99243164 22.36586914 63.92993164 22.36254883 C62.84969727 22.35416992 61.76946289 22.34579102 60.65649414 22.3371582 C59.02454102 22.33039063 59.02454102 22.33039063 57.35961914 22.32348633 C54.66685625 22.31167596 51.97420226 22.29520599 49.28149414 22.2746582 C43.64538675 54.15332468 43.64538675 54.15332468 52.28149414 84.2746582 C54.95838475 87.0924378 56.39270845 88.12337553 60.21899414 88.7746582 C64.90952237 88.00885768 67.97210232 85.58405002 71.28149414 82.2746582 C71.73961089 80.30230487 71.73961089 80.30230487 71.90649414 78.1496582 C72.09211914 76.2315332 72.09211914 76.2315332 72.28149414 74.2746582 C75.13427897 74.56977388 76.11728237 75.08698761 78.03149414 77.2746582 C80.01626289 82.03810319 80.11885159 86.42553631 78.66040039 91.38793945 C75.92187359 97.65612303 71.19210249 102.28764639 65.11352539 105.3762207 C58.25274074 107.97481878 50.86037636 108.72987377 44.03149414 105.7121582 C37.82131142 102.13659845 34.15776683 97.05330659 31.82446289 90.36450195 C30.13341331 83.85578596 30.13588127 77.52885636 30.14868164 70.84887695 C30.14772491 69.74671341 30.14676819 68.64454987 30.14578247 67.50898743 C30.14510331 65.18160953 30.14693915 62.85422971 30.15112305 60.52685547 C30.15645963 56.98506352 30.15117695 53.44339927 30.14477539 49.90161133 C30.14543652 47.63403293 30.1467184 45.3664546 30.14868164 43.09887695 C30.14665741 42.0485881 30.14463318 40.99829926 30.14254761 39.91618347 C30.16132184 33.9541643 30.50846327 28.18753834 31.28149414 22.2746582 C25.34149414 22.2746582 19.40149414 22.2746582 13.28149414 22.2746582 C13.38977539 24.98749023 13.38977539 24.98749023 13.50024414 27.75512695 C14.0389094 42.06932206 14.44380657 56.39033646 14.56860352 70.71450806 C14.58540511 72.32590587 14.60922429 73.93724721 14.64038086 75.5484314 C14.83084071 85.83928201 14.20690792 93.50920671 8.28149414 102.2121582 C5.17378471 105.41698355 3.3639134 106.1543894 -1.09350586 106.6496582 C-6.33362756 106.10757665 -9.20450897 104.0409879 -12.59350586 100.0871582 C-15.27306167 93.38826868 -14.01155299 88.50558311 -11.3059082 82.17431641 C-10.10312461 79.48773356 -8.86594114 76.81993416 -7.58813477 74.16821289 C-2.23443859 62.51092273 -2.37870711 49.51981334 -2.09350586 36.8996582 C-2.05518112 35.46995074 -2.01612196 34.04026276 -1.97631836 32.6105957 C-1.88195846 29.16546515 -1.79738162 25.72018228 -1.71850586 22.2746582 C-11.02894202 23.13716289 -18.74521984 24.13393619 -27.26538086 28.2512207 C-29.71850586 29.2746582 -29.71850586 29.2746582 -33.71850586 29.2746582 C-32.88458863 23.11903233 -29.36092075 19.12860594 -25.71850586 14.2746582 C-25.30342773 13.69071289 -24.88834961 13.10676758 -24.46069336 12.50512695 C-21.04456644 7.97816156 -16.52942727 5.13194963 -11.71850586 2.2746582 C-11.17266342 1.92357498 -10.62682098 1.57249176 -10.06443787 1.21076965 C-6.74098567 -0.1154076 -3.52422797 -0.01202908 0 0 Z " fill="#2C3749" transform="translate(73.718505859375,46.725341796875)"/>
</svg>
