<?xml version="1.0" standalone="no"?>
<!DOCTYPE svg PUBLIC "-//W3C//DTD SVG 20010904//EN"
 "http://www.w3.org/TR/2001/REC-SVG-20010904/DTD/svg10.dtd">
<svg version="1.0" xmlns="http://www.w3.org/2000/svg"
 width="323.000000pt" height="320.000000pt" viewBox="0 0 323.000000 320.000000"
 preserveAspectRatio="xMidYMid meet">
<metadata>
Created by potrace 1.16, written by Peter Selinger 2001-2019
</metadata>
<g transform="translate(0.000000,320.000000) scale(0.100000,-0.100000)"
fill="#000000" stroke="none">
<path d="M0 1600 l0 -1600 1615 0 1615 0 0 1600 0 1600 -1615 0 -1615 0 0
-1600z m1905 971 c230 -61 357 -187 359 -356 1 -90 -17 -150 -63 -211 -97
-129 -303 -191 -601 -181 -231 8 -371 50 -469 142 -71 67 -96 128 -96 240 0
78 4 97 27 140 65 123 191 200 398 241 99 20 344 11 445 -15z m-6 -911 c17
-74 33 -145 36 -157 5 -23 5 -23 -125 -23 l-130 0 0 24 c0 60 -52 116 -107
116 -56 0 -103 -50 -103 -109 0 -31 -1 -31 -50 -31 -27 0 -50 2 -50 4 0 6 50
229 61 267 l9 37 153 -5 c83 -2 179 0 212 4 33 5 61 9 62 9 1 -1 15 -62 32
-136z m-509 113 c-1 -23 -27 -133 -33 -140 -3 -2 -31 -10 -63 -18 -45 -10 -61
-11 -66 -2 -21 31 -98 167 -98 172 0 3 59 5 130 5 117 0 130 -2 130 -17z m790
11 c0 -3 -23 -45 -52 -93 -28 -47 -52 -87 -52 -88 -2 -3 -118 26 -123 31 -3 3
-13 39 -23 80 l-17 76 133 0 c74 0 134 -3 134 -6z m-571 -221 c21 -17 22 -25
19 -156 l-3 -138 -35 23 c-65 43 -105 223 -60 268 25 25 51 25 79 3z m187
-183 c-8 -67 -33 -158 -49 -178 -6 -7 -23 -20 -39 -28 l-28 -15 0 141 0 140
61 0 62 0 -7 -60z m-875 11 c325 -82 572 -286 695 -574 l29 -68 3 165 2 166
35 0 35 0 2 -162 c2 -104 6 -156 12 -143 45 105 62 136 103 198 120 181 293
316 490 382 81 27 204 58 209 52 6 -6 -35 -162 -55 -212 -63 -149 -164 -285
-279 -373 -18 -13 -31 -26 -29 -28 1 -2 42 -8 90 -14 85 -10 250 -59 271 -80
12 -12 -9 -30 -86 -70 -131 -68 -264 -100 -415 -100 -86 0 -240 24 -295 45
-16 6 -18 0 -18 -49 l0 -56 -35 0 -35 0 0 56 c0 49 -2 55 -17 49 -10 -3 -61
-16 -113 -27 -132 -28 -307 -21 -435 17 -86 25 -255 109 -255 127 0 26 187 82
313 93 l68 7 -48 36 c-87 66 -160 150 -217 248 -60 105 -136 334 -110 334 5 0
43 -9 85 -19z"/>
<path d="M1056 2232 c-12 -12 -4 -109 12 -152 14 -38 25 -49 66 -69 141 -67
424 -103 649 -83 163 15 261 35 354 73 64 27 73 34 88 72 19 46 31 128 22 151
-5 12 -13 12 -59 -6 -252 -96 -823 -96 -1075 0 -29 11 -54 17 -57 14z m116
-85 c-2 -24 1 -26 108 -51 129 -30 130 -30 130 -12 0 9 -26 23 -66 36 -36 12
-63 24 -61 26 2 2 39 -1 83 -8 101 -15 465 -15 568 0 44 7 81 10 83 8 2 -2
-27 -15 -66 -27 -54 -18 -68 -27 -62 -38 7 -11 29 -8 124 14 115 27 116 28
111 54 -5 24 -2 27 43 39 26 7 50 13 53 12 7 -1 1 -58 -11 -103 -12 -44 -34
-61 -126 -92 -263 -89 -708 -78 -936 23 -38 17 -47 26 -61 68 -9 26 -16 62
-16 80 l0 33 53 -18 c46 -16 52 -21 49 -44z"/>
<path d="M939 1267 c95 -276 327 -481 593 -524 l39 -6 -26 59 c-41 94 -118
203 -197 280 -117 113 -203 166 -356 218 l-70 24 17 -51z"/>
<path d="M2313 1271 c-220 -92 -373 -236 -478 -451 -19 -40 -35 -75 -35 -78 0
-8 89 9 146 29 180 63 317 177 413 342 26 44 81 173 81 188 0 17 -35 9 -127
-30z"/>
</g>
</svg>
